<?xml version="1.0" encoding="UTF-8"?>
<!-- Created with EazyDraw for Mac ( http://www.eazydraw.com/ ) -->

<svg
    version="1.1"
    xmlns:dc="http://purl.org/dc/elements/1.1/"
    xmlns:cc="http://creativecommons.org/ns#"
    xmlns:rdf="http://www.w3.org/1999/02/22-rdf-syntax-ns#"
    xmlns:svg="http://www.w3.org/2000/svg"
    xmlns:xlink="http://www.w3.org/1999/xlink"
    xmlns="http://www.w3.org/2000/svg"
    width="3125"
    height="1475"
    viewBox="0, 0, 2500, 1180"
    preserveAspectRatio="none"
    id="svg2">
   <defs
       id="defs_2014B24F">
      <marker
          orient="auto"
          refX="0.0"
          refY="0.0"
          id="03E353EE_end_arrow"
          style="overflow:visible"
          markerUnits="userSpaceOnUse">
         <path
             id="03E353EE_end_arrow_path"
             style="fill:#000000;fill-opacity:1;stroke:#000000;stroke-opacity:1;fill-rule:nonzero;stroke-linecap:square;stroke-linejoin:bevel;stroke-width:4.25197"
             d="M-9.26471,0 L-32.75702,8.55051 L-32.75702,-8.55051 z"/>
      </marker>
   </defs>
   <metadata
       id="metadata7">
      <rdf:RDF>
         <cc:Work
             rdf:about="">
            <dc:format>image/svg+xml</dc:format>
            <dc:type rdf:resource="http://purl.org/dc/dcmitype/StillImage"/>
            <dc:title></dc:title>
         </cc:Work>
      </rdf:RDF>
   </metadata>
   <g
       id="layer_Paper"
       style="fill:#000000;fill-opacity:1;stroke:#000000;stroke-opacity:1;fill-rule:nonzero;stroke-linecap:square;stroke-linejoin:bevel;stroke-width:1">
      <circle
          style="fill:#E0E0E0;stroke-width:1.41732"
          id="ADAAF4AE"
          cx="154.5"
          cy="586.5"
          r="130.5"/>
      <circle
          style="fill:#E0E0E0;stroke-width:1.41732"
          id="86A7D0CE"
          cx="2314.5"
          cy="172.5"
          r="130.5"/>
      <circle
          style="fill:#E0E0E0;stroke-width:1.41732"
          id="9775A1CE"
          cx="2314.5"
          cy="448.5"
          r="130.5"/>
      <circle
          style="fill:#E0E0E0;stroke-width:1.41732"
          id="4C6D42CE"
          cx="2314.5"
          cy="724.5"
          r="130.5"/>
      <circle
          style="fill:#E0E0E0;stroke-width:1.41732"
          id="336AD2CE"
          cx="2314.5"
          cy="1000.5"
          r="130.5"/>
      <circle
          style="fill:#E0E0E0;stroke-width:1.41732"
          id="6038C9AE"
          cx="586.5"
          cy="586.5"
          r="130.5"/>
      <circle
          style="fill:#E0E0E0;stroke-width:1.41732"
          id="9A1E2CBE"
          cx="1882.5"
          cy="310.5"
          r="130.5"/>
      <circle
          style="fill:#E0E0E0;stroke-width:1.41732"
          id="3FB7FCBE"
          cx="1882.5"
          cy="862.5"
          r="130.5"/>
      <circle
          style="fill:#E0E0E0;stroke-width:1.41732"
          id="A0C110BE"
          cx="1024.5"
          cy="586.5"
          r="130.5"/>
      <circle
          style="fill:#E0E0E0;stroke-width:1.41732"
          id="665143BE"
          cx="1450.5"
          cy="586.5"
          r="130.5"/>
      <path
          style="fill:#C0C0C0"
          id="E4FDDB0E"
          d="M96.5932,504 C114.275,504.035 102.686,533.483 102.593,546 C102.416,569.934 120.687,641.936 96.5932,642 C72.6238,642.063 90.1572,569.761 90.5932,546 C90.8373,532.697 78.2463,503.964 96.5932,504 z"/>
      <path
          style="fill:#C0C0C0"
          id="1807E39E"
          d="M2280.59,390 C2298.27,390.035 2286.69,419.483 2286.59,432 C2286.42,455.934 2304.69,527.936 2280.59,528 C2256.62,528.063 2274.16,455.761 2274.59,432 C2274.84,418.697 2262.25,389.964 2280.59,390 z"/>
      <path
          style="fill:#C0C0C0"
          id="4679FF1E"
          d="M504.593,510 C518.943,510.006 514.568,551.993 522,552 C528.774,552.007 525.808,510.036 540,510 C555.455,509.961 545.458,538.954 546,552 C546.963,575.152 563.944,647.959 540,648 C525.432,648.025 534.78,563.918 522,564
C509.794,564.078 519.525,647.961 504.593,648 C480.624,648.063 498.157,575.761 498.593,552 C498.837,538.697 486.246,509.993 504.593,510 z"/>
      <path
          style="fill:#FF005A"
          id="D8C6232E"
          d="M575.344,612 C589.693,612.006 585.318,647.993 592.751,648 C599.524,648.007 596.559,612.036 610.751,612 C626.205,611.961 610.208,640.954 610.751,654 C611.713,677.152 634.695,701.959 610.751,702 C596.183,702.025 605.531,659.918 592.751,660
C580.545,660.078 589.682,701.961 574.751,702 C550.781,702.063 574.315,677.761 574.751,654 C574.995,640.697 556.997,611.993 575.344,612 z"/>
      <path
          style="fill:#C0C0C0"
          id="0D49562E"
          d="M575.344,468 C589.693,468.006 585.318,503.993 592.751,504 C599.524,504.007 596.559,468.036 610.751,468 C626.205,467.961 610.208,496.954 610.751,510 C611.713,533.152 634.695,557.959 610.751,558 C596.183,558.025 605.531,515.918 592.751,516
C580.545,516.078 589.682,557.961 574.751,558 C550.781,558.063 574.315,533.761 574.751,510 C574.995,496.697 556.997,467.993 575.344,468 z"/>
      <path
          style="fill:#FF005A"
          id="794FB22E"
          d="M642.593,522 C656.943,522.006 652.568,563.993 660,564 C666.774,564.007 663.808,522.036 678,522 C693.455,521.961 683.458,550.954 684,564 C684.963,587.152 701.944,659.959 678,660 C663.432,660.025 672.78,575.918 660,576
C647.794,576.078 657.525,659.961 642.593,660 C618.624,660.063 636.157,587.761 636.593,564 C636.837,550.697 624.246,521.993 642.593,522 z"/>
      <path
          style="fill:#C0C0C0"
          id="EF414D2E"
          d="M948.593,510 C962.943,510.006 958.568,551.993 966,552 C972.774,552.007 969.808,510.036 984,510 C999.455,509.961 989.458,538.954 990,552 C990.963,575.152 1007.94,647.959 984,648 C969.432,648.025 978.78,563.918 966,564
C953.794,564.078 963.525,647.961 948.593,648 C924.624,648.063 942.157,575.761 942.593,552 C942.837,538.697 930.246,509.993 948.593,510 z"/>
      <path
          style="fill:#FF005A"
          id="10514D2E"
          d="M960.593,522 C974.943,522.006 970.568,563.993 978,564 C984.774,564.007 981.808,522.036 996,522 C1011.45,521.961 1001.46,550.954 1002,564 C1002.96,587.152 1019.94,659.959 996,660 C981.432,660.025 990.78,575.918 978,576
C965.794,576.078 975.525,659.961 960.593,660 C936.624,660.063 954.157,587.761 954.593,564 C954.837,550.697 942.246,521.993 960.593,522 z"/>
      <path
          style="fill:#FF005A"
          id="CAE1921E"
          d="M222.593,522 C240.275,522.035 228.686,551.483 228.593,564 C228.416,587.934 246.687,659.936 222.593,660 C198.624,660.063 216.157,587.761 216.593,564 C216.837,550.697 204.246,521.964 222.593,522 z"/>
      <path
          style="fill:#FF005A"
          id="9389649E"
          d="M2280.59,930 C2298.27,930.035 2286.69,959.483 2286.59,972 C2286.42,995.934 2304.69,1067.94 2280.59,1068 C2256.62,1068.06 2274.16,995.761 2274.59,972 C2274.84,958.697 2262.25,929.964 2280.59,930 z"/>
      <path
          style="fill:#C0C0C0"
          id="486A331E"
          d="M159.988,480 C177.67,480.035 166.081,509.483 165.988,522 C165.811,545.934 174.989,569.901 159.395,570 C143.926,570.098 153.552,545.761 153.988,522 C154.232,508.697 141.641,479.964 159.988,480 z"/>
      <path
          style="fill:#C0C0C0"
          id="AFCC719E"
          d="M2361.99,690 C2379.67,690.035 2368.08,719.483 2367.99,732 C2367.81,755.934 2376.99,779.901 2361.4,780 C2345.93,780.098 2355.55,755.761 2355.99,732 C2356.23,718.697 2343.64,689.964 2361.99,690 z"/>
      <path
          style="fill:#FF005A"
          id="418C051E"
          d="M171.988,600 C189.67,600.035 178.081,629.483 177.988,642 C177.811,665.934 186.989,689.901 171.395,690 C155.926,690.098 165.552,665.761 165.988,642 C166.232,628.697 153.641,599.964 171.988,600 z"/>
      <path
          style="fill:#FF005A"
          id="2435019E"
          d="M2343.99,132 C2361.67,132.035 2350.08,161.483 2349.99,174 C2349.81,197.934 2358.99,221.901 2343.4,222 C2327.93,222.098 2337.55,197.761 2337.99,174 C2338.23,160.697 2325.64,131.964 2343.99,132 z"/>
      <path
          style="fill:#FF005A"
          id="FF414D2E"
          d="M1055.34,540 C1069.69,540.006 1065.32,575.993 1072.75,576 C1079.52,576.007 1076.56,540.036 1090.75,540 C1106.21,539.961 1090.21,568.954 1090.75,582 C1091.71,605.152 1114.69,629.959 1090.75,630 C1076.18,630.025 1085.53,587.918 1072.75,588
C1060.54,588.078 1069.68,629.961 1054.75,630 C1030.78,630.063 1054.31,605.761 1054.75,582 C1054.99,568.697 1037,539.993 1055.34,540 z"/>
      <g
          id="399F075E">
         <path
             style="fill:#C0C0C0"
             id="AFE3B45E"
             d="M1380.59,510 C1394.94,510.007 1390.57,551.993 1398,552 C1404.77,552.007 1401.81,510.036 1416,510 C1431.45,509.961 1421.46,538.954 1422,552 C1422.96,575.152 1439.94,647.959 1416,648 C1401.43,648.025 1410.78,563.918 1398,564
C1385.79,564.078 1395.52,647.961 1380.59,648 C1356.62,648.063 1374.16,575.761 1374.59,552 C1374.84,538.697 1364.75,509.993 1380.59,510 z"/>
         <path
             style="fill:#FF005A;stroke:none"
             id="BFE3B45E"
             d="M1374.86,546.039 C1371.44,525.026 1369.48,511.008 1380.11,510.289 C1388.47,509.723 1391.06,525.971 1393.11,540.539 C1393.26,541.594 1374.97,546.696 1374.86,546.039 z"/>
      </g>
      <g
          id="8053CC5E">
         <path
             style="fill:#FF005A"
             id="8B64113E"
             d="M1392.59,522 C1406.94,522.007 1402.57,563.993 1410,564 C1416.77,564.007 1413.81,522.036 1428,522 C1443.45,521.961 1433.46,550.954 1434,564 C1434.96,587.152 1451.94,659.959 1428,660 C1413.43,660.025 1422.78,575.918 1410,576
C1397.79,576.078 1407.52,659.961 1392.59,660 C1368.62,660.063 1386.16,587.761 1386.59,564 C1386.84,550.697 1376.75,521.993 1392.59,522 z"/>
         <path
             style="fill:#C0C0C0;stroke:none"
             id="87C3324E"
             d="M1386.86,558.039 C1383.44,537.026 1381.48,523.008 1392.11,522.289 C1400.47,521.723 1403.06,537.971 1405.11,552.539 C1405.26,553.594 1386.97,558.696 1386.86,558.039 z"/>
      </g>
      <g
          id="6EAAC76E">
         <path
             style="fill:#FF005A"
             id="9B64113E"
             d="M1493.34,540 C1507.69,540.006 1503.32,575.993 1510.75,576 C1517.52,576.007 1514.56,540.036 1528.75,540 C1544.21,539.961 1528.21,568.954 1528.75,582 C1529.71,605.152 1552.69,629.959 1528.75,630 C1514.18,630.025 1523.53,587.918 1510.75,588
C1498.54,588.078 1507.68,629.961 1492.75,630 C1468.78,630.063 1492.31,605.761 1492.75,582 C1492.99,568.697 1475,539.993 1493.34,540 z"/>
         <path
             style="fill:#C0C0C0;stroke:none"
             id="B6473C5E"
             d="M1529.64,592.148 C1538.31,618.161 1545.38,627.283 1531.14,629.648 C1518.78,631.702 1520.55,609.321 1517.89,596.148 C1517.72,595.302 1529.43,591.517 1529.64,592.148 z"/>
      </g>
      <g
          id="8FBD968E">
         <path
             style="fill:#C0C0C0"
             id="74D8D17E"
             d="M1824.59,240 C1838.94,240.007 1834.57,281.993 1842,282 C1848.77,282.007 1845.81,240.036 1860,240 C1875.45,239.961 1865.46,268.954 1866,282 C1866.96,305.152 1883.94,377.959 1860,378 C1845.43,378.025 1854.78,293.918 1842,294
C1829.79,294.078 1839.52,377.961 1824.59,378 C1800.62,378.063 1818.16,305.761 1818.59,282 C1818.84,268.697 1808.75,239.993 1824.59,240 z"/>
         <path
             style="fill:#FF005A;stroke:none"
             id="94D8D17E"
             d="M1818.86,276.039 C1815.44,255.026 1813.48,241.008 1824.11,240.289 C1832.47,239.723 1835.06,255.971 1837.11,270.539 C1837.26,271.594 1818.97,276.696 1818.86,276.039 z"/>
      </g>
      <g
          id="B6365ADE">
         <path
             style="fill:#C0C0C0"
             id="5A81C48E"
             d="M2274.59,114 C2292.27,114.035 2280.69,143.483 2280.59,156 C2280.42,179.934 2298.69,251.936 2274.59,252 C2250.62,252.063 2268.16,179.761 2268.59,156 C2268.84,142.697 2256.25,113.964 2274.59,114 z"/>
         <path
             style="fill:#FF005A;stroke:none"
             id="7C27268E"
             d="M2268.75,148.75 C2263.83,127.987 2262.82,114.07 2274.47,114.264 C2287.08,114.475 2284.41,130.356 2281.5,145.5 C2281.3,146.541 2268.9,149.397 2268.75,148.75 z"/>
      </g>
      <g
          id="A47F4CDE">
         <path
             style="fill:#FF005A"
             id="4075CB8E"
             d="M2286.59,672 C2304.27,672.035 2292.69,701.483 2292.59,714 C2292.42,737.934 2310.69,809.936 2286.59,810 C2262.62,810.063 2280.16,737.761 2280.59,714 C2280.84,700.697 2268.25,671.964 2286.59,672 z"/>
         <path
             style="fill:#C0C0C0;stroke:none"
             id="5075CB8E"
             d="M2280.75,707 C2275.83,686.237 2274.82,672.32 2286.47,672.514 C2299.08,672.725 2296.41,688.606 2293.5,703.75 C2293.3,704.791 2280.9,707.647 2280.75,707 z"/>
      </g>
      <g
          id="B8E3CEDE">
         <path
             style="fill:#FF005A"
             id="B4D8D17E"
             d="M1818.59,798 C1832.94,798.007 1828.57,839.993 1836,840 C1842.77,840.007 1839.81,798.036 1854,798 C1869.45,797.961 1859.46,826.954 1860,840 C1860.96,863.152 1877.94,935.959 1854,936 C1839.43,936.025 1848.78,851.918 1836,852
C1823.79,852.078 1833.52,935.961 1818.59,936 C1794.62,936.064 1812.16,863.761 1812.59,840 C1812.84,826.697 1802.75,797.993 1818.59,798 z"/>
         <path
             style="fill:#C0C0C0;stroke:none"
             id="C4D8D17E"
             d="M1812.86,834.039 C1809.44,813.026 1807.48,799.008 1818.11,798.289 C1826.47,797.723 1829.06,813.971 1831.11,828.539 C1831.26,829.594 1812.97,834.696 1812.86,834.039 z"/>
      </g>
      <g
          id="05D8D17E">
         <path
             style="fill:#C0C0C0"
             id="E4D8D17E"
             d="M1913.34,822 C1927.69,822.006 1923.32,857.993 1930.75,858 C1937.52,858.007 1934.56,822.036 1948.75,822 C1964.21,821.961 1948.21,850.954 1948.75,864 C1949.71,887.152 1972.69,911.959 1948.75,912 C1934.18,912.025 1943.53,869.918 1930.75,870
C1918.54,870.078 1927.68,911.96 1912.75,912 C1888.78,912.063 1912.31,887.761 1912.75,864 C1912.99,850.697 1895,821.993 1913.34,822 z"/>
         <path
             style="fill:#FF005A;stroke:none"
             id="F4D8D17E"
             d="M1949.64,874.148 C1958.31,900.161 1965.38,909.283 1951.14,911.648 C1938.78,913.702 1940.55,891.321 1937.89,878.148 C1937.72,877.302 1949.43,873.517 1949.64,874.148 z"/>
      </g>
      <g
          id="35D8D17E">
         <path
             style="fill:#FF005A"
             id="15D8D17E"
             d="M1919.34,264 C1933.69,264.006 1929.32,299.993 1936.75,300 C1943.52,300.007 1940.56,264.036 1954.75,264 C1970.21,263.961 1954.21,292.954 1954.75,306 C1955.71,329.152 1978.69,353.959 1954.75,354 C1940.18,354.025 1949.53,311.918 1936.75,312
C1924.54,312.078 1933.68,353.961 1918.75,354 C1894.78,354.063 1918.31,329.761 1918.75,306 C1918.99,292.697 1901,263.993 1919.34,264 z"/>
         <path
             style="fill:#C0C0C0;stroke:none"
             id="25D8D17E"
             d="M1955.64,316.148 C1964.31,342.161 1971.38,351.283 1957.14,353.648 C1944.78,355.702 1946.55,333.321 1943.89,320.148 C1943.72,319.302 1955.43,315.517 1955.64,316.148 z"/>
      </g>
      <path
          style="fill:#C0C0C0"
          id="00514D2E"
          d="M1067.34,552 C1081.69,552.006 1077.32,587.993 1084.75,588 C1091.52,588.007 1088.56,552.036 1102.75,552 C1118.21,551.961 1102.21,580.954 1102.75,594 C1103.71,617.152 1126.69,641.959 1102.75,642 C1088.18,642.025 1097.53,599.918 1084.75,600
C1072.54,600.078 1081.68,641.96 1066.75,642 C1042.78,642.063 1066.31,617.761 1066.75,594 C1066.99,580.697 1049,551.993 1067.34,552 z"/>
      <g
          id="0C67499E">
         <path
             style="fill:#C0C0C0"
             id="D30F266E"
             d="M1505.34,552 C1519.69,552.006 1515.32,587.993 1522.75,588 C1529.52,588.007 1526.56,552.036 1540.75,552 C1556.21,551.961 1540.21,580.954 1540.75,594 C1541.71,617.152 1564.69,641.959 1540.75,642 C1526.18,642.025 1535.53,599.918 1522.75,600
C1510.54,600.078 1519.68,641.96 1504.75,642 C1480.78,642.063 1504.31,617.761 1504.75,594 C1504.99,580.697 1487,551.993 1505.34,552 z"/>
         <path
             style="fill:#FF005A;stroke:none"
             id="E30F266E"
             d="M1541.64,604.148 C1550.31,630.161 1557.38,639.283 1543.14,641.648 C1530.78,643.702 1532.55,621.321 1529.89,608.148 C1529.72,607.302 1541.43,603.517 1541.64,604.148 z"/>
      </g>
      <g
          id="873AFADE">
         <path
             style="fill:#FF005A"
             id="39DCB79E"
             d="M2355.99,420 C2373.67,420.035 2362.08,449.483 2361.99,462 C2361.81,485.934 2370.99,509.901 2355.4,510 C2339.93,510.098 2349.55,485.761 2349.99,462 C2350.23,448.697 2337.64,419.964 2355.99,420 z"/>
         <path
             style="fill:#C0C0C0;stroke:none"
             id="2E26789E"
             d="M2362.39,473.148 C2363.56,495.161 2367.52,508.265 2356.14,509.648 C2343.34,511.203 2347.03,489.627 2349.39,476.398 C2349.72,474.552 2362.36,472.484 2362.39,473.148 z"/>
      </g>
      <g
          id="7B984DDE">
         <path
             style="fill:#C0C0C0"
             id="AE436D9E"
             d="M2349.99,954 C2367.67,954.035 2356.08,983.483 2355.99,996 C2355.81,1019.93 2364.99,1043.9 2349.4,1044 C2333.93,1044.1 2343.55,1019.76 2343.99,996 C2344.23,982.697 2331.64,953.964 2349.99,954 z"/>
         <path
             style="fill:#FF005A;stroke:none"
             id="BE436D9E"
             d="M2356.14,1007.15 C2358.31,1029.16 2361.27,1042.27 2349.89,1043.65 C2337.09,1045.2 2341.28,1023.13 2343.14,1010.4 C2343.42,1008.54 2356.08,1006.49 2356.14,1007.15 z"/>
      </g>
      <line
          style="fill:none;stroke-width:4.25197;marker-end:url(#03E353EE_end_arrow)"
          id="03E353EE"
          x1="306"
          y1="588"
          x2="432"
          y2="588"/>
      <line
          style="fill:none;stroke-width:4.25197;marker-end:url(#03E353EE_end_arrow)"
          id="4E97B7EE"
          x1="738"
          y1="588"
          x2="864"
          y2="588"/>
      <line
          style="fill:none;stroke-width:4.25197;marker-end:url(#03E353EE_end_arrow)"
          id="D9CD48EE"
          x1="1170"
          y1="588"
          x2="1296"
          y2="588"/>
      <line
          style="fill:none;stroke-width:4.25197;marker-end:url(#03E353EE_end_arrow)"
          id="378939EE"
          x1="1584"
          y1="516"
          x2="1764"
          y2="402"/>
      <line
          style="fill:none;stroke-width:4.25197;marker-end:url(#03E353EE_end_arrow)"
          id="9FF6DBEE"
          x1="2028"
          y1="252"
          x2="2160"
          y2="192"/>
      <line
          style="fill:none;stroke-width:4.25197;marker-end:url(#03E353EE_end_arrow)"
          id="DCD8DDEE"
          x1="2028"
          y1="348"
          x2="2160"
          y2="408"/>
      <line
          style="fill:none;stroke-width:4.25197;marker-end:url(#03E353EE_end_arrow)"
          id="A8D75FEE"
          x1="2028"
          y1="924"
          x2="2160"
          y2="984"/>
      <line
          style="fill:none;stroke-width:4.25197;marker-end:url(#03E353EE_end_arrow)"
          id="019FECEE"
          x1="2028"
          y1="828"
          x2="2160"
          y2="768"/>
      <line
          style="fill:none;stroke-width:4.25197;marker-end:url(#03E353EE_end_arrow)"
          id="903FF9EE"
          x1="1584"
          y1="660"
          x2="1764"
          y2="774"/>
      <g
          id="CD34B24F">
         <path
             style="stroke:none"
             id="DB34B24F"
             d="M344.625,560 C344.625,558.458 344.625,556.917 344.625,555.375 C347.708,555.375 350.792,555.375 353.875,555.375 C353.875,543.208 353.875,531.042 353.875,518.875 C350.792,519.646 347.708,520.417 344.625,521.188
C344.625,519.604 344.625,518.021 344.625,516.438 C349.771,515.156 354.917,513.875 360.062,512.594 C360.062,526.854 360.062,541.115 360.062,555.375 C363.146,555.375 366.229,555.375 369.312,555.375 C369.312,556.917 369.312,558.458 369.312,560
z"/>
      </g>
      <g
          id="9044B24F">
         <path
             style="stroke:none"
             id="AF34B24F"
             d="M772.312,560 C772.312,558.198 772.312,556.396 772.312,554.594 C774.104,550.406 777.729,545.844 783.188,540.906 C784.365,539.854 785.542,538.802 786.719,537.75 C791.26,533.646 793.531,529.573 793.531,525.531
C793.531,522.948 792.755,520.917 791.203,519.438 C789.651,517.958 787.521,517.219 784.812,517.219 C781.604,517.219 777.823,518.458 773.469,520.938 C773.469,519.125 773.469,517.312 773.469,515.5 C777.573,513.562 781.646,512.594 785.688,512.594
C790.021,512.594 793.5,513.76 796.125,516.094 C798.75,518.427 800.062,521.521 800.062,525.375 C800.062,528.146 799.401,530.604 798.078,532.75 C796.755,534.896 794.292,537.5 790.688,540.562 C789.896,541.24 789.104,541.917 788.312,542.594
C783.375,546.781 780.521,550.781 779.75,554.594 C786.448,554.594 793.146,554.594 799.844,554.594 C799.844,556.396 799.844,558.198 799.844,560 z"/>
      </g>
      <g
          id="6444B24F">
         <path
             style="stroke:none"
             id="8344B24F"
             d="M1211.5,559.656 C1211.5,557.74 1211.5,555.823 1211.5,553.906 C1215.92,555.656 1219.4,556.531 1221.94,556.531 C1224.88,556.531 1227.27,555.672 1229.11,553.953 C1230.95,552.234 1231.88,550.01 1231.88,547.281
C1231.88,540.781 1227.32,537.531 1218.22,537.531 C1217.41,537.531 1216.59,537.531 1215.78,537.531 C1215.78,536.146 1215.78,534.76 1215.78,533.375 C1216.5,533.365 1217.22,533.354 1217.94,533.344 C1226.48,533.344 1230.75,530.333 1230.75,524.312
C1230.75,519.583 1227.94,517.219 1222.31,517.219 C1219.23,517.219 1215.83,518.083 1212.12,519.812 C1212.12,518.021 1212.12,516.229 1212.12,514.438 C1215.77,513.208 1219.31,512.594 1222.75,512.594 C1232.21,512.594 1236.94,516.167 1236.94,523.312
C1236.94,528.75 1233.72,532.625 1227.28,534.938 C1234.74,536.667 1238.47,540.75 1238.47,547.188 C1238.47,551.542 1237.03,554.958 1234.16,557.438 C1231.28,559.917 1227.33,561.156 1222.31,561.156 C1219.46,561.156 1215.85,560.656 1211.5,559.656
z"/>
      </g>
      <g
          id="7844B24F">
         <path
             style="stroke:none"
             id="A744B24F"
             d="M1673.09,608 C1673.09,603.635 1673.09,599.271 1673.09,594.906 C1666.16,594.906 1659.22,594.906 1652.28,594.906 C1652.28,593.354 1652.28,591.802 1652.28,590.25 C1659.22,580.75 1666.16,571.25 1673.09,561.75
C1675.02,561.75 1676.95,561.75 1678.88,561.75 C1678.88,571.125 1678.88,580.5 1678.88,589.875 C1680.94,589.875 1683,589.875 1685.06,589.875 C1685.06,591.552 1685.06,593.229 1685.06,594.906 C1683,594.906 1680.94,594.906 1678.88,594.906
C1678.88,599.271 1678.88,603.635 1678.88,608 z M1658.31,589.875 C1663.38,589.875 1668.44,589.875 1673.5,589.875 C1673.5,583.021 1673.5,576.167 1673.5,569.312 z"/>
      </g>
      <g
          id="AB44B24F">
         <path
             style="stroke:none"
             id="CA44B24F"
             d="M2088.78,320.188 C2088.78,318.354 2088.78,316.521 2088.78,314.688 C2091.84,315.917 2094.76,316.531 2097.53,316.531 C2100.57,316.531 2102.96,315.635 2104.7,313.844 C2106.44,312.052 2107.31,309.583 2107.31,306.438
C2107.31,299.5 2102.53,296.031 2092.97,296.031 C2091.89,296.031 2090.75,296.104 2089.56,296.25 C2089.56,288.75 2089.56,281.25 2089.56,273.75 C2097.36,273.75 2105.17,273.75 2112.97,273.75 C2112.97,275.542 2112.97,277.333 2112.97,279.125
C2106.97,279.125 2100.97,279.125 2094.97,279.125 C2094.97,283.188 2094.97,287.25 2094.97,291.312 C2100.91,291.312 2105.54,292.677 2108.88,295.406 C2112.21,298.135 2113.88,301.917 2113.88,306.75 C2113.88,311.25 2112.36,314.776 2109.33,317.328
C2106.3,319.88 2102.09,321.156 2096.72,321.156 C2094.39,321.156 2091.74,320.833 2088.78,320.188 z"/>
      </g>
      <g
          id="4F44B24F">
         <path
             style="stroke:none"
             id="6E44B24F"
             d="M2088.78,902.188 C2088.78,900.354 2088.78,898.521 2088.78,896.688 C2091.84,897.917 2094.76,898.531 2097.53,898.531 C2100.57,898.531 2102.96,897.635 2104.7,895.844 C2106.44,894.052 2107.31,891.583 2107.31,888.438
C2107.31,881.5 2102.53,878.031 2092.97,878.031 C2091.89,878.031 2090.75,878.104 2089.56,878.25 C2089.56,870.75 2089.56,863.25 2089.56,855.75 C2097.36,855.75 2105.17,855.75 2112.97,855.75 C2112.97,857.542 2112.97,859.333 2112.97,861.125
C2106.97,861.125 2100.97,861.125 2094.97,861.125 C2094.97,865.188 2094.97,869.25 2094.97,873.312 C2100.91,873.312 2105.54,874.677 2108.88,877.406 C2112.21,880.135 2113.88,883.917 2113.88,888.75 C2113.88,893.25 2112.36,896.776 2109.33,899.328
C2106.3,901.88 2102.09,903.156 2096.72,903.156 C2094.39,903.156 2091.74,902.833 2088.78,902.188 z"/>
      </g>
   </g>
</svg>
